<svg xmlns="http://www.w3.org/2000/svg" viewBox="0 0 343.16 343.16"><defs><style>.cls-1{fill:#7abae2;}</style></defs><g id="Layer_2" data-name="Layer 2"><g id="Layer_2-2" data-name="Layer 2"><path class="cls-1" d="M171.58,343.16C77,343.16,0,266.19,0,171.58S77,0,171.58,0,343.16,77,343.16,171.58,266.19,343.16,171.58,343.16Zm0-333.16C82.48,10,10,82.48,10,171.58S82.48,333.16,171.58,333.16s161.58-72.48,161.58-161.58S260.67,10,171.58,10Z"/><circle class="cls-1" cx="120.07" cy="137.08" r="17.07"/><circle class="cls-1" cx="223.93" cy="137.08" r="17.07"/><path class="cls-1" d="M171.5,258.36a62.38,62.38,0,0,1-59.8-45.2,5,5,0,0,1,4.81-6.36h110a5,5,0,0,1,4.81,6.36A62.37,62.37,0,0,1,171.5,258.36ZM123.58,216.8a52.16,52.16,0,0,0,95.84,0Z"/></g></g></svg>