<svg xmlns="http://www.w3.org/2000/svg" viewBox="0 0 343.16 343.16"><defs><style>.cls-1{fill:#78bea4;}</style></defs><g id="Layer_2" data-name="Layer 2"><g id="Layer_2-2" data-name="Layer 2"><path class="cls-1" d="M171.58,343.16C77,343.16,0,266.19,0,171.58S77,0,171.58,0,343.16,77,343.16,171.58,266.19,343.16,171.58,343.16Zm0-333.16C82.48,10,10,82.48,10,171.58S82.48,333.16,171.58,333.16s161.58-72.48,161.58-161.58S260.67,10,171.58,10Z"/><circle class="cls-1" cx="119.99" cy="137.08" r="17.07"/><circle class="cls-1" cx="223.85" cy="137.08" r="17.07"/><path class="cls-1" d="M171.4,260.83a69.17,69.17,0,0,1-66.31-50.13,5,5,0,1,1,9.62-2.73,58.92,58.92,0,0,0,113.38,0,5,5,0,1,1,9.62,2.73A69.17,69.17,0,0,1,171.4,260.83Z"/></g></g></svg>