<svg xmlns="http://www.w3.org/2000/svg" viewBox="0 0 343.16 343.16"><defs><style>.cls-1{fill:#b00c0c;}</style></defs><g id="Layer_2" data-name="Layer 2"><g id="Layer_2-2" data-name="Layer 2"><path class="cls-1" d="M171.58,343.16C77,343.16,0,266.19,0,171.58S77,0,171.58,0,343.16,77,343.16,171.58,266.19,343.16,171.58,343.16Zm0-333.16C82.48,10,10,82.48,10,171.58S82.48,333.16,171.58,333.16s161.58-72.48,161.58-161.58S260.67,10,171.58,10Z"/><path class="cls-1" d="M171.16,284.58a63,63,0,1,1,63-63A63.07,63.07,0,0,1,171.16,284.58Zm0-116a53,53,0,1,0,53,53A53.06,53.06,0,0,0,171.16,168.58Z"/><path class="cls-1" d="M99.16,112.08a5,5,0,0,1-5-5,22.07,22.07,0,0,1,42.4-8.59,5,5,0,1,1-9.21,3.89,12.07,12.07,0,0,0-23.19,4.7A5,5,0,0,1,99.16,112.08Z"/><path class="cls-1" d="M243,112.08a5,5,0,0,1-5-5,12.08,12.08,0,0,0-23.2-4.7,5,5,0,1,1-9.21-3.89A22.08,22.08,0,0,1,248,107.08,5,5,0,0,1,243,112.08Z"/><path class="cls-1" d="M79.84,134,58,151.59a16.17,16.17,0,1,0,26.11,10.12Z"/><path class="cls-1" d="M259.32,119.46l-1.31,28a16.17,16.17,0,1,0,24.88-12.85Z"/></g></g></svg>