<svg xmlns="http://www.w3.org/2000/svg" viewBox="0 0 343.16 343.16"><defs><style>.cls-1{fill:#79c46a;}</style></defs><g id="Layer_2" data-name="Layer 2"><g id="Layer_2-2" data-name="Layer 2"><path class="cls-1" d="M171.58,343.16C77,343.16,0,266.19,0,171.58S77,0,171.58,0,343.16,77,343.16,171.58,266.19,343.16,171.58,343.16Zm0-333.16C82.48,10,10,82.48,10,171.58S82.48,333.16,171.58,333.16s161.58-72.48,161.58-161.58S260.67,10,171.58,10Z"/><circle class="cls-1" cx="119.9" cy="137.08" r="17.07"/><circle class="cls-1" cx="223.76" cy="137.08" r="17.07"/><path class="cls-1" d="M172.32,252.83a69.13,69.13,0,0,1-59.86-34.77,5,5,0,1,1,8.68-5,58.91,58.91,0,0,0,102.35,0,5,5,0,0,1,8.68,5A69.11,69.11,0,0,1,172.32,252.83Z"/></g></g></svg>