<svg xmlns="http://www.w3.org/2000/svg" viewBox="0 0 343.16 343.16"><defs><style>.cls-1{fill:#9ac731;}</style></defs><g id="Layer_2" data-name="Layer 2"><g id="Layer_2-2" data-name="Layer 2"><path class="cls-1" d="M171.58,343.16C77,343.16,0,266.19,0,171.58S77,0,171.58,0,343.16,77,343.16,171.58,266.19,343.16,171.58,343.16Zm0-333.16C82.48,10,10,82.48,10,171.58S82.48,333.16,171.58,333.16s161.58-72.48,161.58-161.58S260.67,10,171.58,10Z"/><circle class="cls-1" cx="115.73" cy="133.08" r="17.07"/><circle class="cls-1" cx="219.59" cy="133.08" r="17.07"/><path class="cls-1" d="M214.78,236.79a5,5,0,0,1-3.65-1.58,58.36,58.36,0,0,0-43-18.63c-19.06,0-34,11.77-41.14,18.79a5,5,0,0,1-7-7.16c14.28-14,31.38-21.63,48.13-21.63a69.14,69.14,0,0,1,50.27,21.79,5,5,0,0,1-3.64,8.42Z"/></g></g></svg>