<svg xmlns="http://www.w3.org/2000/svg" viewBox="0 0 343.16 343.16"><defs><style>.cls-1{fill:#d1942a;}</style></defs><g id="Layer_2" data-name="Layer 2"><g id="Layer_2-2" data-name="Layer 2"><path class="cls-1" d="M171.58,343.16C77,343.16,0,266.19,0,171.58S77,0,171.58,0,343.16,77,343.16,171.58,266.19,343.16,171.58,343.16Zm0-333.16C82.48,10,10,82.48,10,171.58S82.48,333.16,171.58,333.16s161.58-72.48,161.58-161.58S260.67,10,171.58,10Z"/><circle class="cls-1" cx="117.48" cy="124.08" r="17.07"/><circle class="cls-1" cx="221.34" cy="124.08" r="17.07"/><path class="cls-1" d="M233.41,247.83a5,5,0,0,1-4.81-3.64,58.92,58.92,0,0,0-113.38,0,5,5,0,1,1-9.62-2.73,68.92,68.92,0,0,1,132.62,0,5,5,0,0,1-3.45,6.18A4.91,4.91,0,0,1,233.41,247.83Z"/><path class="cls-1" d="M254.41,144.86l-14,24.24a16.17,16.17,0,1,0,28,0Z"/></g></g></svg>