<?xml version="1.0" encoding="utf-8"?>
<!-- Generator: Adobe Illustrator 16.0.0, SVG Export Plug-In . SVG Version: 6.00 Build 0)  -->
<!DOCTYPE svg PUBLIC "-//W3C//DTD SVG 1.1//EN" "http://www.w3.org/Graphics/SVG/1.1/DTD/svg11.dtd">
<svg version="1.1" id="Layer_1" xmlns="http://www.w3.org/2000/svg" xmlns:xlink="http://www.w3.org/1999/xlink" x="0px" y="0px"
	 width="512px" height="512px" viewBox="0 0 512 512" enable-background="new 0 0 512 512" xml:space="preserve">
<linearGradient id="SVGID_1_" gradientUnits="userSpaceOnUse" x1="54.3262" y1="251.3867" x2="451.4531" y2="251.3867">
	<stop  offset="0" style="stop-color:#0071BC"/>
	<stop  offset="0.2843" style="stop-color:#0374BF"/>
	<stop  offset="0.5194" style="stop-color:#0E7DC8"/>
	<stop  offset="0.7368" style="stop-color:#1F8CD8"/>
	<stop  offset="0.9426" style="stop-color:#37A2EE"/>
	<stop  offset="1" style="stop-color:#3FA9F5"/>
</linearGradient>
<circle fill="url(#SVGID_1_)" stroke="#FFFFFF" stroke-width="3" stroke-miterlimit="10" cx="252.89" cy="251.388" r="198.563"/>
<circle fill="none" stroke="#F01159" stroke-width="4" stroke-miterlimit="10" cx="252.89" cy="251.388" r="198.563"/>
<circle fill="#FFFFFF" cx="254.308" cy="66.111" r="51.712"/>
<path fill="#FFFFFF" d="M306.02,427.994c0,28.563-23.151,51.712-51.712,51.712s-51.712-23.149-51.712-51.712
	c0-28.561,23.151-51.711,51.712-51.711S306.02,399.434,306.02,427.994z"/>
<circle fill="#FFFFFF" cx="408.109" cy="162.614" r="51.711"/>
<circle fill="#FFFFFF" cx="408.109" cy="352.603" r="51.711"/>
<circle fill="#FFFFFF" cx="88.445" cy="162.614" r="51.712"/>
<circle fill="#FFFFFF" cx="88.445" cy="352.603" r="51.712"/>
<rect x="40" y="321" fill="none" width="105" height="128"/>
<path fill="none" stroke="#F01159" stroke-width="4" stroke-miterlimit="10" d="M130.055,351.115c0,23.207-18.813,42.02-42.02,42.02
	c-23.204,0-42.019-18.813-42.019-42.02S64.832,309.1,88.035,309.1C111.242,309.1,130.055,327.908,130.055,351.115z"/>
<path fill="none" stroke="#F01159" stroke-width="4" stroke-miterlimit="10" d="M295.871,428.51
	c0,23.204-18.813,42.018-42.019,42.018c-23.204,0-42.017-18.813-42.017-42.018c0-23.21,18.813-42.021,42.017-42.021
	C277.058,386.488,295.871,405.3,295.871,428.51z"/>
<circle fill="none" stroke="#F01159" stroke-width="4" stroke-miterlimit="10" cx="407.337" cy="162.604" r="42.02"/>
<circle fill="none" stroke="#F01159" stroke-width="4" stroke-miterlimit="10" cx="253.853" cy="65.34" r="42.018"/>
<path fill="#0C6D96" d="M266.31,40.996H241.4c-1.506,0-2.725,1.219-2.725,2.724v43.239c0,1.505,1.219,2.725,2.725,2.725h24.909
	c1.499,0,2.718-1.219,2.718-2.725V43.72C269.027,42.215,267.809,40.996,266.31,40.996z M257.457,87.501h-7.213
	c-0.489,0-0.884-0.396-0.884-0.882c0-0.491,0.395-0.888,0.884-0.888h7.213c0.489,0,0.886,0.397,0.886,0.888
	C258.343,87.105,257.946,87.501,257.457,87.501z M263.959,81.39h-20.212V45.44h20.212V81.39z M265.911,83.422h-24.117V43.696h24.117
	V83.422z"/>
<circle fill="none" stroke="#F01159" stroke-width="4" stroke-miterlimit="10" cx="88.037" cy="162.604" r="42.018"/>
<circle fill="none" stroke="#F01159" stroke-width="4" stroke-miterlimit="10" cx="407.336" cy="351.115" r="42.016"/>
<circle fill="#0C6D96" stroke="#FFFFFF" stroke-width="3" stroke-miterlimit="10" cx="254.919" cy="247.629" r="89.138"/>
<path fill="#F01159" stroke="#FFFFFF" stroke-miterlimit="10" d="M316.26,229.5H273.5v-39.277c0-7.744,1.933-16.723-6.084-16.723
	h-26.785c-7.5,1-7.131,8.979-7.131,16.723V229.5h-34.058c-8.024,0-16.942,0.057-16.942,7.799v23.266
	c0,7.742,8.918,6.935,16.942,6.935H233.5v35.563c0,7.742-0.881,15.438,7.131,15.438h26.785c7.181,0,6.084-7.695,6.084-15.438V267.5
	h42.76c8.025,0,11.24,0.808,11.24-6.935v-23.266C327.5,229.557,324.285,229.5,316.26,229.5z"/>
<g>
	<path fill="#FFFFFF" d="M200.176,262.252c-1.226-1.361-1.838-3.311-1.838-5.852v-1.794H203v2.153c0,2.032,0.851,3.048,2.556,3.048
		c0.836,0,1.47-0.247,1.903-0.739c0.433-0.495,0.65-1.293,0.65-2.396c0-1.317-0.297-2.475-0.895-3.477
		c-0.598-1-1.705-2.201-3.32-3.606c-2.033-1.794-3.451-3.417-4.258-4.866c-0.807-1.449-1.21-3.086-1.21-4.909
		c0-2.48,0.626-4.4,1.885-5.761c1.254-1.358,3.077-2.037,5.468-2.037c2.36,0,4.146,0.679,5.356,2.037
		c1.212,1.361,1.815,3.311,1.815,5.852v1.299h-4.663v-1.614c0-1.075-0.208-1.861-0.628-2.353c-0.418-0.492-1.03-0.739-1.836-0.739
		c-1.645,0-2.466,1.002-2.466,3.004c0,1.133,0.306,2.197,0.919,3.181c0.613,0.987,1.726,2.182,3.339,3.586
		c2.061,1.794,3.481,3.422,4.258,4.886c0.779,1.467,1.167,3.184,1.167,5.156c0,2.571-0.635,4.542-1.906,5.916
		c-1.272,1.376-3.114,2.063-5.536,2.063C203.208,264.291,201.401,263.613,200.176,262.252z"/>
</g>
<g>
	<path fill="#FFFFFF" d="M242.449,232.463h7.038l3.137,22.459h0.09l3.137-22.459h7.039v31.38h-4.663v-23.758h-0.089l-3.586,23.758
		h-4.123l-3.586-23.758h-0.092v23.758h-4.302V232.463z"/>
</g>
<g>
	<path fill="#FFFFFF" d="M297.059,232.463h6.678l5.111,31.38h-4.932l-0.897-6.232v0.093h-5.601l-0.898,6.14h-4.572L297.059,232.463z
		 M302.439,253.443l-2.197-15.51h-0.092l-2.15,15.51H302.439z"/>
</g>
<g>
	<path fill="#FFFFFF" d="M245.476,184.843h7.306c2.542,0,4.394,0.591,5.561,1.77c1.163,1.182,1.746,2.998,1.746,5.449v1.927
		c0,3.256-1.075,5.317-3.228,6.187v0.089c1.197,0.359,2.042,1.093,2.534,2.197c0.495,1.107,0.742,2.584,0.742,4.438v5.514
		c0,0.898,0.028,1.622,0.088,2.173c0.059,0.554,0.209,1.099,0.448,1.637h-5.022c-0.18-0.505-0.297-0.987-0.356-1.434
		c-0.062-0.448-0.092-1.255-0.092-2.422v-5.737c0-1.437-0.232-2.435-0.694-3.002c-0.463-0.569-1.263-0.851-2.397-0.851h-1.705
		v13.446h-4.93V184.843z M252.2,198.291c0.987,0,1.725-0.253,2.22-0.759c0.492-0.51,0.739-1.361,0.739-2.558v-2.42
		c0-1.136-0.202-1.956-0.606-2.465c-0.403-0.509-1.037-0.762-1.903-0.762h-2.244v8.964H252.2z"/>
</g>
<g>
	<path fill="#FFFFFF" d="M250.205,282.201h-5.153v-4.481h15.24v4.481h-5.153V309.1h-4.934V282.201z"/>
</g>
<path fill-rule="evenodd" clip-rule="evenodd" fill="#18749B" d="M78.752,153.567c-2.183,11.037-4.22,21.339-6.306,31.888
	c-1.569-1.722-1.488-3.842-2.009-5.719c-1.003-3.612-2-7.229-2.837-10.882c-0.612-2.67-1.375-4.861-4.851-4.078
	c-1.186,0.267-1.75-0.321-1.701-1.623c0.048-1.245,0.8-1.2,1.69-1.308c5.434-0.657,5.865-0.375,7.305,4.982
	c0.493,1.832,1.026,3.652,1.77,6.292c2.194-11.102,4.23-21.409,6.268-31.716c0.188-0.047,0.375-0.095,0.563-0.142
	c1.606,6.009,3.193,12.023,4.826,18.025c0.814,2.992,2.191,3.429,4.808,1.604c0.297-0.207,0.557-0.472,0.864-0.66
	c1.742-1.063,3.301-0.63,4.552,0.79c1.298,1.474,1.3,3.141-0.002,4.616c-1.252,1.418-2.819,1.879-4.545,0.782
	c-0.699-0.445-1.413-1.552-1.958-1.455c-6.949,1.248-6.293-4.306-7.486-8.208C79.457,155.954,79.222,155.148,78.752,153.567z"/>
<path fill-rule="evenodd" clip-rule="evenodd" fill="#1B769C" d="M116.476,163.227c-0.043,12.66-9.248,23.101-21.616,24.713
	c-1.047,0.137-2.808,1.181-3.164-1.038c-0.367-2.287,1.501-1.652,2.643-1.858c10.572-1.911,17.921-9.423,19.108-19.563
	c1.057-9.035-4.498-18.454-13.245-22.17c-1.979-0.841-4.153-1.28-6.277-1.704c-1.203-0.239-2.543,0.001-2.246-1.895
	c0.321-2.05,1.9-1.135,2.867-1.039c10.025,0.997,18.922,8.922,21.195,18.777C116.205,159.458,116.657,161.473,116.476,163.227z"/>
<path fill-rule="evenodd" clip-rule="evenodd" fill="#1B769C" d="M109.916,163.508c-0.055,8.89-6.713,16.625-15.496,17.878
	c-0.969,0.138-2.511,1.02-2.755-1.108c-0.229-2.004,1.289-1.576,2.362-1.825c7.957-1.847,13.011-7.827,12.933-15.293
	c-0.076-7.305-5.123-13.187-12.914-14.928c-1.307-0.292-2.891-0.145-2.315-2.175c0.51-1.799,2.016-0.903,3.02-0.724
	C103.625,146.917,109.971,154.576,109.916,163.508z"/>
<path fill-rule="evenodd" clip-rule="evenodd" fill="#1B769C" d="M102.626,163.483c-0.062,5.068-3.171,9.179-8.007,10.423
	c-0.999,0.257-2.405,1.247-2.919-0.683c-0.458-1.72,0.849-1.792,2.026-2.203c5.967-2.082,7.878-8.71,3.855-13.053
	c-1.21-1.306-2.747-2.054-4.404-2.384c-1.502-0.299-1.738-1.161-1.446-2.322c0.372-1.477,1.526-0.79,2.355-0.605
	C99.05,153.761,102.688,158.41,102.626,163.483z"/>
<path fill-rule="evenodd" clip-rule="evenodd" fill="#0C6D96" d="M68.374,375.187c-0.928-2.129-0.548-4.36-0.296-6.512
	c0.159-1.361,1.359-2.041,2.812-2.04c9.408,0.006,18.817,0.006,28.225,0c1.452-0.001,2.651,0.678,2.813,2.04
	c0.255,2.151,0.634,4.383-0.294,6.512C90.546,375.187,79.46,375.187,68.374,375.187z"/>
<path fill-rule="evenodd" clip-rule="evenodd" fill="#137198" d="M64.097,336.7c0.698-0.382,0.719-1.176,1.06-1.771
	c1.934-3.384,5.857-5.112,9.508-4.157c3.9,1.02,6.534,4.364,6.535,8.3c0.001,3.94-2.618,7.265-6.534,8.294
	c-3.664,0.962-7.557-0.749-9.507-4.145c-0.342-0.595-0.363-1.39-1.063-1.77C64.097,339.867,64.097,338.284,64.097,336.7z
	 M76.994,339.055c-0.01-2.484-1.877-4.335-4.365-4.325c-2.483,0.011-4.336,1.88-4.326,4.364c0.01,2.483,1.88,4.336,4.366,4.326
	C75.147,343.411,77.003,341.537,76.994,339.055z"/>
<path fill-rule="evenodd" clip-rule="evenodd" fill="#137198" d="M91.979,364.721c-4.692,0-8.878-0.025-13.063,0.02
	c-0.915,0.01-1.431-0.307-1.847-1.104c-2.479-4.752-4.997-9.483-7.653-14.509c4.341,0.938,7.975,0.079,10.905-3.027
	c0.527-0.56,0.885-0.5,1.233,0.138c0.151,0.276,0.324,0.542,0.479,0.816C85.273,352.808,88.512,358.562,91.979,364.721z"/>
<path fill-rule="evenodd" clip-rule="evenodd" fill="#137198" d="M89.75,339.065c0-0.632,0-1.265,0-1.896
	c0.003-4.264,2.396-6.105,6.449-4.507c1.64,0.646,2.278,0.222,2.926-0.941c1.155-2.073,2.48-2.365,4.517-1.004
	c2.155,1.441,4.549,2.523,6.822,3.794c0.588,0.329,1.464,0.646,0.996,1.565c-0.475,0.933-1.217,0.406-1.823,0.08
	c-2.293-1.233-4.596-2.45-6.845-3.76c-0.928-0.541-1.386-0.337-2.179,0.374c-3.232,2.898-3.288,9.645-0.077,12.552
	c0.868,0.785,1.367,0.999,2.371,0.402c2.17-1.288,4.4-2.475,6.623-3.674c0.597-0.322,1.334-0.866,1.854,0.016
	c0.543,0.92-0.341,1.25-0.924,1.575c-2.688,1.499-5.431,2.898-8.082,4.459c-1.406,0.828-1.988-0.021-2.672-0.938
	c-0.995-1.334-1.591-2.438-3.999-1.628c-4.165,1.4-5.956-0.371-5.957-4.81C89.75,340.172,89.75,339.619,89.75,339.065z"/>
<path fill-rule="evenodd" clip-rule="evenodd" fill="#137198" d="M82.03,344.604c1.11-3.363,1.718-6.746-0.12-10.099
	c5.895-0.604,5.895-0.604,5.895,4.704c0,0.158,0,0.316,0,0.474C87.806,345.215,87.806,345.215,82.03,344.604z"/>
<path fill-rule="evenodd" clip-rule="evenodd" fill="#0C6D96" d="M380.829,362.174c0-2.126,0-4.252,0-6.38
	c1.116-2.579,2.65-4.817,5.169-6.22c0.918-0.512,1.325-1.307,1.702-2.253c1.708-4.285,4.991-6.034,9.513-5.02
	c1.293,0.288,2.096,0.084,2.939-1.012c3.751-4.889,8.754-6.899,14.766-5.498c6.134,1.438,9.688,5.545,10.837,11.736
	c0.232,1.243,0.526,2.383,1.959,2.896c3.128,1.106,5.106,3.398,6.3,6.431c0,1.953,0,3.902,0,5.852
	c-2.321,4.886-6.123,6.813-11.563,6.665c-9.639-0.266-19.299-0.282-28.938,0C387.608,369.548,383.385,367.521,380.829,362.174z"/>
<path fill-rule="evenodd" clip-rule="evenodd" fill="none" d="M434.014,356.854c-1.193-3.032-3.172-5.324-6.3-6.431
	c-1.433-0.513-1.727-1.652-1.959-2.896c-1.148-6.191-4.703-10.299-10.837-11.736c-6.012-1.401-11.015,0.609-14.766,5.498
	c-0.844,1.096-1.646,1.3-2.939,1.012c-4.521-1.015-7.805,0.734-9.513,5.02c-0.377,0.946-0.784,1.741-1.702,2.253
	c-2.519,1.402-4.053,3.641-5.169,6.22c0-9.11,0.026-18.217-0.029-27.326c-0.009-1.393,0.035-1.996,1.817-1.987
	c16.536,0.103,33.072,0.105,49.608,0c1.788-0.009,1.822,0.606,1.813,1.99C433.986,337.934,434.014,347.396,434.014,356.854z"/>
<path fill-rule="evenodd" clip-rule="evenodd" fill="none" d="M380.829,362.174c2.556,5.348,6.779,7.374,12.684,7.197
	c9.639-0.282,19.299-0.266,28.938,0c5.44,0.148,9.242-1.779,11.563-6.665c0,5.23-0.044,10.462,0.031,15.688
	c0.019,1.146-0.22,1.367-1.362,1.364c-16.843-0.047-33.682-0.047-50.526,0c-1.142,0.003-1.381-0.219-1.362-1.364
	C380.871,372.991,380.829,367.58,380.829,362.174z"/>
<path fill-rule="evenodd" clip-rule="evenodd" fill="#0C6D96" d="M253.954,425.646c0-6.737-0.006-13.475,0.003-20.211
	c0.004-2.944,0.302-3.214,3.302-3.132c9.039,0.248,17.412,7.061,19.869,16.424c1.209,4.609,2.06,9.313,3.028,13.983
	c0.344,1.66,0.12,3.25-1.221,4.454c-0.981,0.881-1.254,1.947-1.21,3.21c0.054,1.542,0.061,3.09-0.015,4.63
	c-0.135,2.742-1.965,4.515-4.726,4.653c-0.7,0.035-1.403,0.006-2.104,0.021c-2.997,0.065-3.811,0.813-4.098,3.814
	c-0.091,0.959-0.204,1.963-1.436,1.914c-1.238-0.05-1.249-1.104-1.295-2.037c-0.198-3.997,2.014-6.36,6.018-6.422
	c0.562-0.009,1.123,0.006,1.685-0.009c2.49-0.067,3.182-0.774,3.237-3.334c0.021-0.981,0.051-1.967-0.003-2.946
	c-0.11-2.033,0.118-3.92,1.786-5.369c0.719-0.624,0.669-1.45,0.477-2.333c-0.952-4.386-1.674-8.832-2.831-13.163
	c-2.042-7.638-6.983-12.489-14.758-14.263c-2.842-0.647-2.979-0.472-2.979,2.403c-0.002,12.702,0.012,25.404-0.023,38.107
	c-0.003,1.147,0.534,2.974-1.33,2.988c-1.881,0.016-1.345-1.815-1.353-2.963C253.931,439.261,253.954,432.453,253.954,425.646z"/>
<path fill-rule="evenodd" clip-rule="evenodd" fill="#0C6D96" d="M244.296,430.292c-1.123,0-2.249,0.052-3.368-0.012
	c-1.803-0.101-3.287,0.101-4.594,1.743c-1.456,1.829-4.392,1.603-6.024-0.071c-1.639-1.679-1.622-4.427,0.036-6.086
	c1.656-1.657,4.564-1.84,6.021,0.011c1.253,1.593,2.677,1.735,4.405,1.702c2.876-0.056,5.754-0.02,8.632-0.004
	c0.935,0.005,2.008,0.052,2.052,1.275c0.05,1.387-1.102,1.416-2.107,1.43c-1.684,0.021-3.369,0.006-5.053,0.006
	C244.296,430.288,244.296,430.29,244.296,430.292z"/>
<path fill-rule="evenodd" clip-rule="evenodd" fill="#0C6D96" d="M237.887,437.744c1.265,0.518,2.182-0.346,2.862-1.325
	c2.51-3.617,6.196-2.42,9.579-2.424c0.681-0.001,1.15,0.523,1.155,1.263c0.004,0.741-0.452,1.199-1.147,1.271
	c-0.97,0.1-1.96,0.169-2.93,0.093c-1.869-0.146-3.314,0.419-4.683,1.783c-1.135,1.131-1.334,2.245-1.271,3.727
	c0.09,2.112-1.458,3.791-3.457,4.115c-2.172,0.353-4.169-0.781-4.862-2.763c-0.68-1.944,0.055-4.069,1.774-5.146
	C235.775,437.795,236.724,437.639,237.887,437.744z"/>
<path fill-rule="evenodd" clip-rule="evenodd" fill="#0C6D96" d="M246.548,423.996c-2.282,0.634-4.272-0.581-5.892-2.668
	c-0.796-1.026-1.757-1.325-3.098-1.218c-2.742,0.22-4.658-1.627-4.663-4.212c-0.005-2.517,1.903-4.379,4.416-4.31
	c2.554,0.071,4.256,2.028,4.156,4.779c-0.086,2.366,2.204,4.808,4.603,4.881c1.049,0.031,2.101-0.008,3.151,0.019
	c0.981,0.023,2.197-0.044,2.227,1.305c0.033,1.524-1.288,1.37-2.319,1.418C248.429,424.022,247.728,423.996,246.548,423.996z"/>
<path fill-rule="evenodd" clip-rule="evenodd" fill="#0C6D96" d="M248.238,405.676c2.429,0.04,4.223,1.882,4.209,4.321
	c-0.015,2.518-1.946,4.354-4.479,4.261c-2.417-0.089-4.168-1.979-4.104-4.426C243.929,407.409,245.794,405.637,248.238,405.676z"/>
<path fill-rule="evenodd" clip-rule="evenodd" fill="#0C6D96" d="M248.329,443.596c2.417,0.083,4.176,1.968,4.118,4.412
	c-0.06,2.504-2.037,4.306-4.57,4.166c-2.405-0.133-4.119-2.063-4.009-4.513C243.975,445.25,245.882,443.512,248.329,443.596z"/>
<path fill-rule="evenodd" clip-rule="evenodd" fill="#0C6D96" d="M407.366,191.752c-3.16-1.207-4.076-2.74-3.545-6.066
	c-4.637-2.68-9.301-5.375-13.647-7.89c-1.467,0.495-2.659,1.148-3.899,1.257c-2.15,0.191-3.97-1.418-4.356-3.487
	c-0.391-2.125,0.799-4.213,2.799-5.031c0.367-0.148,0.877-0.575,0.88-0.876c0.053-5.195,0.041-10.389,0.041-15.637
	c-2.231-0.638-3.687-1.949-3.757-4.37c-0.06-1.835,0.768-3.246,2.411-4.026c2.038-0.969,3.879-0.458,5.481,1.112
	c4.512-2.602,9.005-5.188,13.488-7.797c0.241-0.139,0.57-0.505,0.529-0.694c-0.644-2.938,0.774-4.635,3.323-5.686
	c0.582,0,1.165,0,1.752,0c2.965,1.231,3.519,2.122,3.53,5.486c0,0.314,0.301,0.751,0.583,0.917c4.448,2.597,8.914,5.162,13.45,7.774
	c1.139-1.088,2.459-1.769,4.108-1.535c2.021,0.288,3.563,1.79,3.8,3.731c0.255,2.108-0.85,4.106-2.825,4.738
	c-0.834,0.267-0.978,0.643-0.975,1.4c0.026,4.744,0,9.488,0.041,14.232c0.003,0.389,0.285,1.011,0.585,1.124
	c1.968,0.729,3.105,2.047,3.19,4.156c0.071,1.895-0.805,3.324-2.503,4.103c-1.891,0.868-3.646,0.477-5.162-0.959
	c-0.06-0.056-0.139-0.092-0.263-0.169c-4.503,2.603-9.035,5.212-13.547,7.854c-0.251,0.146-0.489,0.555-0.489,0.844
	c-0.024,3.369-0.573,4.248-3.524,5.494C408.365,191.752,407.864,191.752,407.366,191.752z M425.693,151.166
	c-0.05-0.539-0.221-1.025-0.108-1.432c0.411-1.486-0.345-2.206-1.582-2.685c-0.156-0.059-0.285-0.173-0.433-0.256
	c-4.014-2.319-8.029-4.637-11.897-6.872c-0.808,0.471-1.52,0.81-2.142,1.273c-0.324,0.24-0.678,0.689-0.687,1.05
	c-0.056,2.537-0.064,5.07,0.003,7.604c0.009,0.425,0.354,1.006,0.715,1.229c2.445,1.489,4.923,2.927,7.426,4.31
	c0.362,0.199,1.033,0.162,1.408-0.044C420.831,154.007,423.223,152.592,425.693,151.166z M390.56,172.9c0,1.21,0,2.274,0,3.423
	c4.509,2.609,9.062,5.25,13.627,7.863c0.188,0.107,0.553,0.066,0.759-0.047c0.78-0.435,1.535-0.926,2.38-1.444
	c0-2.698,0.019-5.48-0.031-8.262c-0.003-0.318-0.31-0.753-0.6-0.925c-2.635-1.574-5.285-3.117-7.956-4.625
	c-0.295-0.163-0.822-0.202-1.099-0.046C395.216,170.187,392.824,171.592,390.56,172.9z M411.666,184.406
	c4.041-2.34,8.185-4.786,12.387-7.133c1.102-0.614,1.9-1.156,1.532-2.595c-0.124-0.484,0.076-1.052,0.136-1.613
	c-2.416-1.393-4.813-2.797-7.24-4.146c-0.288-0.157-0.814-0.155-1.099,0.003c-2.674,1.507-5.329,3.046-7.962,4.623
	c-0.288,0.172-0.572,0.622-0.578,0.948c-0.047,2.778-0.025,5.562-0.025,8.227C409.803,183.303,410.683,183.822,411.666,184.406z
	 M426.467,152.456c-2.511,1.453-5.003,2.868-7.455,4.343c-0.31,0.184-0.587,0.694-0.593,1.058c-0.05,2.826-0.05,5.657,0,8.484
	c0.006,0.373,0.269,0.901,0.575,1.083c2.484,1.491,5.012,2.916,7.463,4.326c0.635-0.4,1.154-0.884,1.761-1.065
	c0.866-0.256,1.01-0.747,1.003-1.55c-0.031-4.284-0.05-8.569,0.003-12.853c0.019-1.376,0.08-2.618-1.643-3.02
	C427.21,153.176,426.912,152.79,426.467,152.456z M389.602,171.707c2.425-1.396,4.813-2.737,7.156-4.149
	c0.343-0.205,0.666-0.754,0.672-1.151c0.053-2.951,0.039-5.904,0.012-8.857c-0.003-0.327-0.139-0.806-0.38-0.957
	c-2.38-1.486-4.794-2.92-7.047-4.276c-0.831,0.536-1.438,1.108-2.156,1.34c-0.776,0.251-0.9,0.655-0.897,1.357
	c0.022,4.323,0.041,8.649-0.006,12.975c-0.016,1.365-0.121,2.645,1.652,3.007C388.939,171.061,389.214,171.416,389.602,171.707z
	 M404.466,139.956c-3.938,2.274-7.854,4.616-11.854,6.798c-1.436,0.783-2.444,1.58-1.946,3.339c0.127,0.445,0.348,0.998,0.705,1.226
	c2.09,1.343,4.222,2.628,6.375,3.867c0.347,0.196,0.975,0.231,1.318,0.051c2.562-1.361,5.09-2.786,7.611-4.222
	c0.276-0.16,0.616-0.525,0.619-0.8c0.043-2.935,0.025-5.871,0.025-8.607C406.276,141.003,405.426,140.511,404.466,139.956z
	 M407.363,172.283c0-2.641-0.112-5.05,0.042-7.445c0.103-1.613-0.377-2.545-1.853-3.291c-2.232-1.132-4.339-2.52-6.675-3.904
	c0,3.176-0.017,6.116,0.03,9.055c0.006,0.335,0.315,0.796,0.619,0.98C402.046,169.197,404.593,170.666,407.363,172.283z
	 M408.81,172.275c1.938-1.133,3.605-2.334,5.443-3.134c2.314-1.005,3.139-2.503,2.844-4.995c-0.238-2.025-0.047-4.101-0.047-6.39
	c-2.763,1.646-5.29,3.143-7.801,4.67c-0.207,0.125-0.416,0.444-0.416,0.676C408.801,166.083,408.81,169.064,408.81,172.275z
	 M400.025,156.613c2.6,1.565,5.047,3.051,7.513,4.507c0.244,0.145,0.679,0.248,0.883,0.125c2.48-1.469,4.938-2.984,7.504-4.549
	c-2.727-1.697-5.301-3.294-7.885-4.898C405.376,153.399,402.752,154.976,400.025,156.613z M405.135,136.95
	c-0.024,1.598,1.274,2.952,2.868,2.991c1.566,0.041,2.957-1.302,2.989-2.882c0.031-1.58-1.3-2.955-2.884-2.983
	C406.512,134.046,405.152,135.363,405.135,136.95z M389.175,149.624c0.021-1.626-1.236-2.953-2.842-2.998
	c-1.572-0.044-2.939,1.284-2.959,2.875c-0.024,1.619,1.242,2.959,2.842,3.009C387.778,152.559,389.155,151.217,389.175,149.624z
	 M405.128,187.285c-0.009,1.596,1.303,2.935,2.896,2.955c1.572,0.02,2.953-1.323,2.972-2.894c0.018-1.584-1.309-2.923-2.909-2.944
	C406.483,184.38,405.141,185.693,405.128,187.285z M432.856,149.568c0.003-1.6-1.312-2.937-2.899-2.944
	c-1.587-0.008-2.906,1.326-2.902,2.933c0.003,1.618,1.299,2.941,2.894,2.953C431.52,152.522,432.854,151.172,432.856,149.568z
	 M389.175,174.668c-0.02-1.624-1.359-2.919-2.978-2.876c-1.619,0.045-2.868,1.382-2.823,3.03c0.038,1.552,1.359,2.832,2.909,2.821
	C387.899,177.635,389.192,176.298,389.175,174.668z M432.856,174.723c0-1.642-1.29-2.937-2.925-2.932
	c-1.567,0.008-2.856,1.284-2.881,2.854c-0.029,1.637,1.244,2.966,2.863,2.997C431.516,177.673,432.856,176.342,432.856,174.723z"/>
</svg>
